<?xml version="1.0" encoding="UTF-8"?>
<svg xmlns="http://www.w3.org/2000/svg" xmlns:xlink="http://www.w3.org/1999/xlink" width="px" height="px" viewBox="0 0 720 720" version="1.1">
<g id="surface1">
<path style=" stroke:none;fill-rule:evenodd;fill:rgb(84.705882%,100%,37.254902%);fill-opacity:1;" d="M 720 89.25 C 720 39.957031 680.042969 0 630.75 0 L 404.25 0 C 354.957031 0 315 39.957031 315 89.25 L 315 180.75 C 315 230.042969 275.042969 270 225.75 270 L 89.25 270 C 39.957031 270 0 309.957031 0 359.25 L 0 630.75 C 0 680.042969 39.957031 720 89.25 720 L 315.75 720 C 365.042969 720 405 680.042969 405 630.75 L 405 539.25 C 405 489.957031 444.957031 450 494.25 450 L 630.75 450 C 680.042969 450 720 410.042969 720 360.75 Z M 720 89.25 "/>
</g>
</svg>
