<?xml version="1.0" encoding="UTF-8"?>
<svg xmlns="http://www.w3.org/2000/svg" xmlns:xlink="http://www.w3.org/1999/xlink" width="px" height="px" viewBox="0 0 1650 384" version="1.1">
<g id="surface1">
<path style=" stroke:none;fill-rule:nonzero;fill-opacity:1;" d="M 926.472656 181.453125 C 951.746094 162.609375 964.660156 137.308594 964.660156 104.46875 C 964.660156 74.855469 953.882812 50.070312 932.351562 30.144531 C 911.339844 10.234375 884.941406 0 854.246094 0 L 704.519531 0 L 704.519531 376.988281 L 979.199219 376.988281 L 979.199219 181.453125 Z M 917.269531 318.824219 L 766.460938 318.824219 L 766.460938 58.164062 L 854.246094 58.164062 C 881.710938 58.164062 902.71875 79.714844 902.71875 107.707031 C 902.71875 135.699219 881.710938 157.246094 854.246094 157.246094 L 828.386719 157.246094 L 828.386719 213.257812 L 917.253906 213.257812 L 917.253906 318.824219 Z M 917.269531 318.824219 "/>
<path style=" stroke:none;fill-rule:nonzero;fill-opacity:1;" d="M 223.511719 0 L 285.453125 0 L 285.453125 376.988281 L 223.511719 376.988281 L 223.511719 213.8125 L 61.941406 213.8125 L 61.941406 377 L 0 377 L 0 0 L 61.941406 0 L 61.941406 154.566406 L 223.511719 154.566406 Z M 223.511719 0 "/>
<path style=" stroke:none;fill-rule:nonzero;fill-opacity:1;" d="M 353.089844 0 L 415.03125 0 L 415.03125 248.277344 C 415.03125 294.054688 441.957031 323.671875 495.816406 323.671875 C 549.679688 323.671875 576.601562 294.054688 576.601562 248.277344 L 576.601562 0 L 638.542969 0 L 638.542969 252.050781 C 638.542969 292.441406 625.074219 324.226562 598.691406 348.453125 C 572.296875 372.15625 537.835938 384 495.816406 384 C 453.816406 384 419.335938 372.15625 392.953125 348.453125 C 366.558594 324.226562 353.105469 292.441406 353.105469 252.050781 L 353.105469 0 Z M 353.089844 0 "/>
<path style=" stroke:none;fill-rule:nonzero;fill-opacity:1;" d="M 1107.125 317.753906 L 1260.628906 317.753906 L 1260.628906 377 L 1045.191406 377 L 1045.191406 0 L 1107.125 0 Z M 1107.125 317.753906 "/>
<path style=" stroke:none;fill-rule:nonzero;fill-opacity:1;" d="M 1582.929688 376.988281 L 1556.53125 301.050781 L 1396.039062 301.050781 L 1369.640625 376.988281 L 1302.324219 376.988281 L 1439.136719 0 L 1513.464844 0 L 1649.714844 376.988281 Z M 1416.519531 242.886719 L 1536.082031 242.886719 L 1476.304688 72.703125 Z M 1416.519531 242.886719 "/>
</g>
</svg>
